# xmcd
#
# Track frame offsets:
#	150
#	12550
#	27747
#	41542
#	54902
#	74780
#	89782
#	104860
#	124470
#	140137
#	155687
#	171862
#	191105
#	207847
#
# Disc length: 3118 seconds
#
# Revision: 0
# Processed by: cddbd v1.5.2PL0 Copyright (c) Steve Scherf et al.
# Submitted via: audiograbber 1.82.02
#
DISCID=e70c2c0e
DTITLE=Slim Dusty - The Entertainer CD 2
DYEAR=1978
DGENRE=Country
TTITLE0=The Road To Gundagi
TTITLE1=Jambalaya
TTITLE2=I Fall To Pieces
TTITLE3=Listen To A Country Song
TTITLE4=Crazy
TTITLE5=Oh Lonesome Me
TTITLE6=Sunset Years Of Life
TTITLE7=Camooweal
TTITLE8=Catching Yellowbelly
TTITLE9=Meldey
TTITLE10=Angle Of Goulburn Hill
TTITLE11=Biggest Disappointment
TTITLE12=Lights On The Hill
TTITLE13=Glorybound Train
EXTD=
EXTT0=
EXTT1=
EXTT2=
EXTT3=
EXTT4=
EXTT5=
EXTT6=
EXTT7=
EXTT8=
EXTT9=
EXTT10=
EXTT11=
EXTT12=
EXTT13=
PLAYORDER=
